<?xml version="1.0" encoding="utf-8"?>
<svg xmlns="http://www.w3.org/2000/svg" width="520" height="96" viewBox="0 0 520 96" fill="none">
  <rect x="2" y="2" width="516" height="92" rx="28" fill="#121217" stroke="#1E212B" stroke-width="2"/>
  <g transform="translate(26 20) scale(1.03)">
    <path fill-rule="evenodd" clip-rule="evenodd" d="M27.2375 54.3079C25.9366 54.3441 24.6718 54.2355 23.3708 54.0545C19.8655 53.5477 16.577 52.4255 13.5414 50.5792C6.81987 46.5246 2.51952 40.6238 0.748782 32.8766C0.35127 31.139 0.170583 29.3651 0.170583 27.5912C0.134446 20.4957 2.44724 14.2691 7.1451 8.98363C11.2286 4.42224 16.2879 1.63472 22.2505 0.476271C23.9129 0.150457 25.5752 -0.0305508 27.2375 0.0418522C27.2375 2.75697 27.2375 5.43588 27.2375 8.15099C27.1652 8.18719 27.093 8.2234 27.0207 8.2958C26.045 8.98363 25.0693 9.70766 24.1297 10.4679C21.9976 12.2056 19.9739 14.0518 18.2754 16.2601C15.9988 19.1925 14.481 22.4144 14.2642 26.2156C14.1558 28.0256 14.3726 29.7995 14.9508 31.501C16.3601 35.7366 20.7328 40.1169 26.8761 40.2255C27.2375 40.2255 27.3098 40.298 27.3098 40.6962C27.2736 42.5424 27.2736 46.235 27.2736 46.235C27.2736 46.235 27.2736 46.4522 27.2736 46.5608C27.2375 49.1311 27.2375 51.7014 27.2375 54.3079Z" fill="#0099FF"/>
    <path fill-rule="evenodd" clip-rule="evenodd" d="M27.2368 8.11469C27.2368 8.11469 27.2368 2.72066 27.2368 0.00554404C28.7184 -0.0306575 30.1639 0.114149 31.6094 0.331358C34.3197 0.765776 36.9216 1.56221 39.379 2.82926C44.4743 5.47197 48.4856 9.23693 51.1959 14.3775C52.7498 17.3461 53.7617 20.4956 54.1592 23.7899C54.6289 27.6635 54.2676 31.5009 53.1112 35.2296C51.7741 39.4652 49.5336 43.194 46.3896 46.3435C42.5591 50.1447 38.0057 52.6064 32.7297 53.7286C30.9228 54.0906 29.0798 54.3078 27.2368 54.2716C27.2368 51.6651 27.2368 49.0948 27.2368 46.4883C27.2368 46.3797 27.2368 46.1987 27.2368 46.1987C27.2368 46.1987 27.3452 46.1263 27.3813 46.0901C30.2001 44.099 32.8742 41.9269 35.187 39.3204C36.7048 37.6189 38.0057 35.8088 38.9092 33.7092C40.174 30.7406 40.6799 27.6997 40.0294 24.4778C38.873 18.6131 33.6331 14.2327 27.5982 14.0879C27.2007 14.0879 27.2368 13.7621 27.2368 13.7621V8.11469Z" fill="#0561E2"/>
  </g>
  <text x="93" y="52" fill="#FFFFFF" font-size="28" font-family="Inter, Arial, sans-serif" font-weight="800" letter-spacing="0.02em">JUSPAY</text>
  <text x="207" y="53" fill="#C7CBD6" font-size="32" font-family="Inter, Arial, sans-serif" font-weight="650">Decision Engine</text>
</svg>
