<?xml version="1.0" encoding="utf-8"?>
<svg xmlns="http://www.w3.org/2000/svg" width="64" height="64" viewBox="0 0 64 64" fill="none">
  <path fill-rule="evenodd" clip-rule="evenodd" d="M32.1721 58.975C30.6767 59.0166 29.2224 58.8919 27.7269 58.6837C23.6963 58.101 19.914 56.8138 16.4222 54.6956C8.69173 50.035 3.74847 43.2524 1.71295 34.3474C1.25614 32.349 1.04845 30.309 1.04845 28.269C1.00691 20.113 3.66596 12.9559 9.06828 6.88054C13.7632 1.63708 19.58 -1.56832 26.4378 -2.9005e-05C28.3495 0.374023 30.2612 0.582102 32.1721 0.499172C32.1721 3.62002 32.1721 6.69875 32.1721 9.8196C32.0891 9.86117 32.0066 9.90273 31.9237 9.98622C30.8013 10.7772 29.6795 11.6099 28.5987 12.4841C26.1476 14.4825 23.8217 16.6065 21.8697 19.1465C19.2534 22.5165 17.5077 26.2199 17.2584 30.5903C17.1333 32.6717 17.3825 34.7115 18.0478 36.6697C19.6675 41.5393 24.6942 46.575 31.7577 46.6997C32.1732 46.6997 32.2561 46.7832 32.2561 47.2409C32.2146 49.3644 32.2146 53.6109 32.2146 53.6109C32.2146 53.6109 32.2146 53.8601 32.2146 53.9852C32.1721 56.9407 32.1721 59.8963 32.1721 62.8934V58.975Z" fill="#0099FF"/>
  <path fill-rule="evenodd" clip-rule="evenodd" d="M32.1712 9.77795C32.1712 9.77795 32.1712 3.57833 32.1712 0.45752C33.875 0.415928 35.5372 0.582248 37.1994 0.83146C40.3175 1.33106 43.3114 2.24726 46.1384 3.70306C51.9982 6.74098 56.6118 11.0696 59.7304 16.9807C61.5177 20.3918 62.6811 24.0117 63.1384 27.7974C63.6785 32.2501 63.2635 36.6611 61.9336 40.9465C60.3955 45.8156 57.8186 50.1016 54.2021 53.7209C49.7968 58.0908 44.5603 60.9226 38.4901 62.2125C36.4116 62.6284 34.2912 62.8776 32.1712 62.8356C32.1712 59.8385 32.1712 56.8829 32.1712 53.8858C32.1712 53.7607 32.1712 53.5525 32.1712 53.5525C32.1712 53.5525 32.2963 53.4695 32.3383 53.428C35.5792 51.1397 38.6554 48.6417 41.3161 45.6451C43.0622 43.688 44.5581 41.6067 45.5968 39.1917C47.0516 35.7799 47.6336 32.2847 46.8853 28.5813C45.5557 21.8407 39.5299 16.8059 32.5875 16.6396C32.1296 16.6396 32.1712 16.2659 32.1712 16.2659V9.77795Z" fill="#0561E2"/>
</svg>
